<?xml version="1.0" encoding="UTF-8"?>
<!DOCTYPE svg PUBLIC "-//W3C//DTD SVG 1.1//EN" "http://www.w3.org/Graphics/SVG/1.1/DTD/svg11.dtd">
<!-- Creator: CorelDRAW X7 -->
<svg xmlns="http://www.w3.org/2000/svg" xml:space="preserve" width="66mm" height="66mm" version="1.1" style="shape-rendering:geometricPrecision; text-rendering:geometricPrecision; image-rendering:optimizeQuality; fill-rule:evenodd; clip-rule:evenodd"
viewBox="0 0 6201 6201"
 xmlns:xlink="http://www.w3.org/1999/xlink">
 <defs>
  <style type="text/css">
   <![CDATA[
    .fil0 {fill:#F9D10E}
   ]]>
  </style>
 </defs>
 <g id="Слой_x0020_1">
  <metadata id="CorelCorpID_0Corel-Layer"/>
  <path class="fil0" d="M3100 6201c1713,0 3101,-1388 3101,-3101 0,-1712 -1388,-3100 -3101,-3100 -1712,0 -3100,1388 -3100,3100 0,41 1,80 3,120 544,-840 1177,-1373 1900,-1598 -1,-16 -1,-31 -1,-47 0,-376 305,-680 681,-680 376,0 680,304 680,680 0,376 -304,681 -680,681 -205,0 -388,-90 -513,-233 -926,705 -1428,1683 -1500,2869 141,199 305,381 488,541 662,-1335 1665,-2198 3010,-2589 0,-376 305,-681 681,-681 376,0 681,305 681,681 0,376 -305,681 -681,681 -209,0 -396,-95 -521,-243 -1126,538 -1818,1462 -2076,2771 299,96 618,148 948,148z"/>
 </g>
</svg>
