<?xml version="1.0" encoding="UTF-8"?>
<!DOCTYPE svg PUBLIC "-//W3C//DTD SVG 1.1//EN" "http://www.w3.org/Graphics/SVG/1.1/DTD/svg11.dtd">
<!-- Creator: CorelDRAW X7 -->
<svg xmlns="http://www.w3.org/2000/svg" xml:space="preserve" width="66mm" height="66mm" version="1.1" style="shape-rendering:geometricPrecision; text-rendering:geometricPrecision; image-rendering:optimizeQuality; fill-rule:evenodd; clip-rule:evenodd"
viewBox="0 0 3488 3488"
 xmlns:xlink="http://www.w3.org/1999/xlink">
 <defs>
  <style type="text/css">
   <![CDATA[
    .fil0 {fill:#EC1C2E}
   ]]>
  </style>
 </defs>
 <g id="Слой_x0020_1">
  <metadata id="CorelCorpID_0Corel-Layer"/>
  <path class="fil0" d="M1744 3488c963,0 1744,-781 1744,-1744 0,-963 -781,-1744 -1744,-1744 -963,0 -1744,781 -1744,1744 0,963 781,1744 1744,1744zm645 -3355l18 7c-368,114 -530,350 -527,708 426,76 749,448 749,896 0,503 -407,910 -910,910 -478,0 -844,-367 -938,-836 -108,-590 460,-1546 1608,-1685z"/>
 </g>
</svg>
